<svg width="212" height="212" viewBox="0 0 212 212" fill="none" xmlns="http://www.w3.org/2000/svg">
<path d="M157.81 0H54.06C24.2035 0 0 24.2035 0 54.06V157.05C0 186.907 24.2035 211.11 54.06 211.11H157.81C187.667 211.11 211.87 186.907 211.87 157.05V54.06C211.87 24.2035 187.667 0 157.81 0Z" fill="black"/>
<path d="M63.7 79.1101C63.7 79.1101 88.2399 77.4701 90.4199 46.1201H107.87V75.2901H137.32V99.0101H108.15V139.22C108.15 141.3 108.5 143.39 109.31 145.31C111.74 151.07 119.16 158.78 141.68 146.18V167.17C141.68 167.17 119.41 177.08 103.6 172.9C103.6 172.9 82.79 169.36 81.15 148.91V97.3801H63.7V79.1101Z" fill="#00EF7D"/>
<path d="M138.4 46.1199L149.06 40.7099C147.08 36.8299 143.06 34.1599 138.4 34.1599C131.8 34.1599 126.44 39.5099 126.44 46.1199C126.44 52.7299 131.79 58.0799 138.4 58.0799C143.45 58.0799 147.75 54.9499 149.51 50.5299L138.4 46.1199Z" fill="#00EF7D"/>
</svg>
